<svg width="81" height="15" viewBox="0 0 81 15" fill="none" xmlns="http://www.w3.org/2000/svg">
<rect width="81" height="15" fill="white"/>
<path d="M7.20667 6H5.27333V10.4C5.27333 11.1467 5.7 11.3067 6.40667 11.3067C6.67333 11.3067 6.94 11.2533 7.20667 11.2533V13.56C6.62 13.56 6.02 13.6667 5.48667 13.6667C2.80667 13.6667 2.1 12.8667 2.1 10.2267V5.98667H0.5V3.89333H2.11333V1H5.28667V3.89333H7.22V6H7.20667Z" fill="#312C2C"/>
<path fill-rule="evenodd" clip-rule="evenodd" d="M12.1533 11.7466C10.8066 11.7466 10.06 10.8933 10.0066 9.54665V9.53332H17.1C17.26 6.25332 15.54 3.62665 12.0466 3.62665C9.19331 3.62665 6.83331 5.78665 6.83331 8.73332C6.83331 12.0133 8.97998 13.8933 12.1533 13.8933C14.3 13.8933 16.3933 12.92 16.9266 10.6666H13.98C13.66 11.3733 12.9 11.7466 12.1533 11.7466ZM12.0467 5.78668C13.1267 5.78668 13.8733 6.69335 13.9267 7.77335H10.0067C10.1667 6.58668 10.9133 5.78668 12.0467 5.78668Z" fill="#312C2C"/>
<path d="M24.0733 7.45332C24.0733 6.65332 23.3267 6.05332 22.5133 6.05332C20.74 6.05332 20.4733 7.55999 20.4733 8.89332C20.4733 10.1333 21.0067 11.4133 22.3533 11.4133C23.4867 11.4133 24.02 10.7733 24.18 9.74666H27.2467C26.98 12.3733 24.9933 13.88 22.42 13.88C19.5267 13.88 17.3133 11.8933 17.3133 8.94666C17.3133 5.87999 19.2467 3.67999 22.42 3.67999C24.8333 3.67999 26.98 4.97332 27.1933 7.49332H24.0733V7.45332Z" fill="#312C2C"/>
<path d="M27.34 1.01331H30.5133V5.2533H30.5667C31.0467 4.2933 32.34 3.63997 33.5133 3.63997C36.74 3.63997 37.0067 5.99997 37.0067 7.39997V13.6266H33.8333V8.95997C33.8333 7.6133 33.9933 6.27997 32.22 6.27997C31.0333 6.27997 30.5 7.30664 30.5 8.3733V13.64H27.3267V1.01331H27.34Z" fill="#312C2C"/>
<path d="M37.2733 3.9067H40.34V5.6267H40.3933C40.8733 4.3867 41.9533 3.7467 43.2866 3.7467C43.5533 3.7467 43.7666 3.7467 44.0333 3.80004V6.69337C43.6066 6.5867 43.2333 6.53337 42.7933 6.53337C41.2333 6.53337 40.4333 7.61337 40.4333 8.84003V13.6134H37.26C37.2733 13.6267 37.2733 3.9067 37.2733 3.9067Z" fill="#312C2C"/>
<path fill-rule="evenodd" clip-rule="evenodd" d="M44.0478 6.89332C44.0474 6.90218 44.047 6.91107 44.0467 6.91999L44.0333 6.89332H44.0478ZM44.0478 6.89332H46.9267C47.0867 6.02665 47.6867 5.65332 48.54 5.65332C49.2467 5.65332 50.1 5.93332 50.1 6.67999C50.1 7.26665 49.78 7.47999 49.2467 7.58665C48.8198 7.68237 48.3463 7.74897 47.8603 7.81733C45.8413 8.10133 43.6067 8.41566 43.6067 10.9733C43.6067 13.0133 45.1133 13.92 46.94 13.92C48.1267 13.92 49.3133 13.5867 50.1667 12.68C50.1667 13 50.22 13.2667 50.3267 13.5867H53.5C53.1267 12.84 53.1267 11.92 53.1267 11.12V6.87999C53.1267 4.13332 50.9267 3.65332 48.62 3.65332C47.54 3.65332 46.4067 3.86666 45.5533 4.34666C44.6926 4.82335 44.1081 5.61564 44.0478 6.89332ZM50.06 9.12C50.1667 11.1067 49.6333 11.96 48.1267 11.96C47.42 11.96 46.8333 11.64 46.8333 10.8933C46.8333 10.1333 47.4333 9.81333 48.1267 9.65333C48.3859 9.56693 48.6823 9.50677 48.9715 9.44806C49.3965 9.3618 49.8061 9.27866 50.06 9.12Z" fill="#312C2C"/>
<path fill-rule="evenodd" clip-rule="evenodd" d="M60.3533 13.6266H63.3667V1.01331H60.1933V5.03997H60.14C59.5 4.11997 58.5933 3.6933 57.4067 3.6933C54.6733 3.6933 53.3267 6.0533 53.3267 8.5733C53.3267 11.2666 54.6067 13.8933 57.6733 13.8933C58.7267 13.9066 59.7267 13.3866 60.3 12.4933H60.3533V13.6266ZM58.4333 11.48C56.98 11.48 56.5 10.04 56.5 8.69336C56.5 7.45336 56.98 6.05336 58.4333 6.12003C59.8333 6.12003 60.3133 7.40003 60.3133 8.80003C60.3133 10.0267 59.9933 11.48 58.4333 11.48Z" fill="#312C2C"/>
<path fill-rule="evenodd" clip-rule="evenodd" d="M63.8612 6.89332C63.8607 6.90218 63.8604 6.91107 63.86 6.91999H63.8467V6.89332H63.8612ZM63.8612 6.89332H66.74C66.9 6.02665 67.5 5.65332 68.3533 5.65332C69.06 5.65332 69.9133 5.93332 69.9133 6.67999C69.9133 7.26665 69.5933 7.47999 69.06 7.58665C68.6332 7.68237 68.1596 7.74897 67.6736 7.81733C65.6547 8.10133 63.42 8.41566 63.42 10.9733C63.42 13.0133 64.9267 13.92 66.7533 13.92C67.8867 13.92 69.1266 13.5867 69.98 12.68C69.98 13 70.0333 13.2667 70.14 13.5867H73.3133C72.94 12.84 72.94 11.92 72.94 11.12V11.12V6.87999C72.94 4.13332 70.74 3.65332 68.4333 3.65332C67.3533 3.65332 66.22 3.86666 65.3667 4.34666C64.506 4.82335 63.9214 5.61564 63.8612 6.89332ZM69.8733 9.12C69.98 11.1067 69.4467 11.96 67.94 11.96C67.2333 11.96 66.5933 11.64 66.6467 10.8933C66.6467 10.1333 67.2467 9.81333 67.94 9.65333C68.1992 9.56693 68.4956 9.50677 68.7849 9.44806C69.2098 9.3618 69.6195 9.27866 69.8733 9.12Z" fill="#312C2C"/>
<path d="M73.4067 3.9067H76.4733V5.6267H76.5267C77.0067 4.3867 78.0867 3.7467 79.42 3.7467C79.6867 3.7467 80.22 3.7467 80.5 3.80004V6.69337C80.0733 6.5867 79.42 6.53337 78.9933 6.53337C77.4333 6.53337 76.6333 7.61337 76.6333 8.84003V13.6134H73.46V3.89337H73.4067V3.9067Z" fill="#312C2C"/>
<path d="M77.3267 10.4533H80.5V13.6266H77.3267V10.4533Z" fill="#312C2C"/>
</svg>
